HIERARCHY
ROOT Hips
{
 OFFSET 0.000000 0.000000 0.000000
 CHANNELS 6 Xposition Yposition Zposition Yrotation Xrotation Zrotation
 JOINT Chest
 {
  OFFSET 0.000000 10.354800 0.006500
  CHANNELS 3 Yrotation Xrotation Zrotation
  JOINT Chest2
  {
   OFFSET 0.000000 10.435800 -0.013200
   CHANNELS 3 Yrotation Xrotation Zrotation
   JOINT Chest3
   {
    OFFSET 0.000000 10.393700 0.000000
    CHANNELS 3 Yrotation Xrotation Zrotation
    JOINT Chest4
    {
     OFFSET 0.000000 10.383100 0.000000
     CHANNELS 3 Yrotation Xrotation Zrotation
     JOINT Neck
     {
      OFFSET 0.000000 15.694000 0.000000
      CHANNELS 3 Yrotation Xrotation Zrotation
      JOINT Head
      {
       OFFSET 0.000000 9.711000 -0.028000
       CHANNELS 3 Yrotation Xrotation Zrotation
       End Site
       {
        OFFSET 0.000000 18.578700 -0.014800
       }
      }
     }
     JOINT RightCollar
     {
      OFFSET -3.157200 10.367500 0.000000
      CHANNELS 3 Yrotation Xrotation Zrotation
      JOINT RightShoulder
      {
       OFFSET -14.482500 0.000000 0.000000
       CHANNELS 3 Yrotation Xrotation Zrotation
       JOINT RightElbow
       {
        OFFSET 0.000000 -31.707800 0.000000
        CHANNELS 3 Yrotation Xrotation Zrotation
        JOINT RightWrist
        {
         OFFSET 0.000000 -25.659300 0.000000
         CHANNELS 3 Yrotation Xrotation Zrotation
         End Site
         {
          OFFSET 0.000000 -18.994300 0.000000
         }
        }
       }
      }
     }
     JOINT LeftCollar
     {
      OFFSET 3.157200 10.367500 0.000000
      CHANNELS 3 Yrotation Xrotation Zrotation
      JOINT LeftShoulder
      {
       OFFSET 14.482500 0.000000 0.000000
       CHANNELS 3 Yrotation Xrotation Zrotation
       JOINT LeftElbow
       {
        OFFSET 0.000000 -31.707800 0.000000
        CHANNELS 3 Yrotation Xrotation Zrotation
        JOINT LeftWrist
        {
         OFFSET 0.000000 -25.659300 0.000000
         CHANNELS 3 Yrotation Xrotation Zrotation
         End Site
         {
          OFFSET 0.000000 -18.994300 0.000000
         }
        }
       }
      }
     }
    }
   }
  }
 }
 JOINT RightHip
 {
  OFFSET -8.365600 -0.032100 -0.003200
  CHANNELS 3 Yrotation Xrotation Zrotation
  JOINT RightKnee
  {
   OFFSET 0.000000 -43.980000 0.003100
   CHANNELS 3 Yrotation Xrotation Zrotation
   JOINT RightAnkle
   {
    OFFSET 0.000000 -42.882800 0.005200
    CHANNELS 3 Yrotation Xrotation Zrotation
    JOINT RightToe
    {
     OFFSET 0.000000 -4.915500 10.826300
     CHANNELS 3 Yrotation Xrotation Zrotation
     End Site
     {
      OFFSET 0.000000 -1.517500 6.175900
     }
    }
   }
  }
 }
 JOINT LeftHip
 {
  OFFSET 8.365600 -0.032100 -0.003200
  CHANNELS 3 Yrotation Xrotation Zrotation
  JOINT LeftKnee
  {
   OFFSET 0.000000 -43.980000 0.003100
   CHANNELS 3 Yrotation Xrotation Zrotation
   JOINT LeftAnkle
   {
    OFFSET 0.000000 -42.882800 0.005200
    CHANNELS 3 Yrotation Xrotation Zrotation
    JOINT LeftToe
    {
     OFFSET 0.000000 -4.915500 10.826300
     CHANNELS 3 Yrotation Xrotation Zrotation
     End Site
     {
      OFFSET 0.000000 -1.517500 6.175900
     }
    }
   }
  }
 }
}
MOTION
Frames: 9
Frame Time: 0.008333
0.000000 91.618600 0.000000 0.000000 -5.767877 0.000000 0.000000 11.653817 0.000000 0.000000 -5.885947 0.000000 0.000000 -0.000000 0.000000 0.000000 -0.000000 0.000000 0.000000 12.528835 0.000000 0.000000 0.711642 0.000000 0.000000 -0.000000 0.000000 0.000000 0.000000 -90.000000 0.000000 -2.309062 0.000000 0.000000 2.309062 0.000000 0.000000 -0.000000 0.000000 0.000000 -0.000000 90.000000 0.000000 -2.309062 0.000000 0.000000 2.309062 0.000000 0.000000 8.520406 0.000000 0.000000 1.905762 0.000000 -0.000000 -4.658285 0.000000 0.000000 -0.000000 0.000000 0.000000 8.520406 0.000000 0.000000 1.905762 0.000000 -0.000000 -4.658285 0.000000 0.000000 -0.000000 0.000000
-9.596814 147.399666 12.512241 178.865826 -22.851328 -3.634288 -0.038752 12.016037 3.142884 -0.026165 0.904205 0.246329 -0.041432 1.543934 0.419315 -0.055252 10.954510 2.974337 -1.325803 24.097573 -5.470760 -0.198221 0.446631 -5.666032 3.688674 3.558763 -2.679481 15.098227 -12.969146 -7.348035 42.667649 -39.676928 -34.136867 7.666852 -40.193510 20.956521 -6.324497 6.111054 0.719211 -14.422146 -25.333284 1.468334 -42.628484 -26.539750 34.663805 -10.901583 5.706773 12.090109 2.062376 -54.835497 0.922362 -154.376335 77.760530 -146.260282 2.605093 -24.239779 -1.582794 0.022131 -0.115933 0.023453 -9.880499 -53.778529 9.740530 153.411780 77.105821 148.929598 -2.684157 -25.270261 1.390734 0.044703 0.093387 0.016419
-8.937905 140.838063 12.152765 178.865073 -22.852128 -3.694595 -0.026258 12.017322 3.207334 -0.025574 0.904461 0.246263 -0.041209 1.543859 0.420111 -0.048798 10.952722 2.978973 -1.328762 24.089068 -5.478644 -0.194973 0.436185 -5.670881 3.693731 3.560661 -2.688026 15.099618 -12.946340 -7.366702 42.741938 -39.707243 -34.192587 7.706826 -40.165928 20.975691 -6.311830 6.110029 0.731992 -14.373495 -25.316422 1.484531 -42.667053 -26.583613 34.625532 -10.893280 5.589370 11.991116 2.015395 -54.844487 1.004929 -154.366636 77.749191 -146.241396 2.621751 -24.289009 -1.578755 0.008011 -0.056401 0.003635 -9.926147 -53.761668 9.807744 153.376975 77.124677 148.906735 -2.633262 -25.218604 1.382229 0.014999 0.049162 0.006814
-8.398387 135.434087 11.856871 178.869587 -22.851165 -3.729488 -0.022959 12.019071 3.246624 -0.026212 0.902848 0.242810 -0.041261 1.543807 0.420508 -0.046401 10.950522 2.984346 -1.322647 24.071405 -5.489711 -0.185816 0.415452 -5.684296 3.700328 3.563885 -2.696849 15.094367 -12.939834 -7.371096 42.782678 -39.718608 -34.224187 7.779538 -40.158019 21.002006 -6.312650 6.111028 0.727901 -14.341637 -25.299888 1.496959 -42.694575 -26.600734 34.618038 -10.870457 5.497143 11.917717 2.006919 -54.852711 1.030858 -154.378539 77.740902 -146.239533 2.628105 -24.304891 -1.577494 0.004512 -0.037465 0.002048 -9.936741 -53.753221 9.823977 153.324058 77.136707 148.869082 -2.598341 -25.196398 1.372800 0.014647 0.032752 0.006653
-8.007331 131.531374 11.643128 178.883449 -22.851079 -3.767160 -0.027344 12.022186 3.285815 -0.028303 0.901923 0.240182 -0.041444 1.543755 0.420887 -0.052747 10.959676 3.008159 -1.318038 24.045477 -5.524515 -0.157328 0.370802 -5.730618 3.718778 3.562374 -2.721441 15.103287 -12.916178 -7.396670 42.809058 -39.751165 -34.266127 7.847543 -40.144559 21.041009 -6.296521 6.099758 0.714800 -14.316596 -25.281627 1.499616 -42.727548 -26.618028 34.604813 -10.831906 5.414110 11.868961 1.993065 -54.858479 1.052798 -154.405386 77.733891 -146.245972 2.627055 -24.325766 -1.578382 0.004803 -0.015276 0.002180 -9.958657 -53.744885 9.840711 153.253601 77.142903 148.814714 -2.566924 -25.171480 1.361490 0.009588 0.012214 0.004354
-7.762885 129.066263 11.508327 178.892310 -22.850112 -3.777571 -0.033204 12.022546 3.295317 -0.028029 0.912229 0.253066 -0.043435 1.546165 0.423178 -0.061241 10.957506 3.005305 -1.308748 24.022527 -5.545439 -0.135995 0.342062 -5.767219 3.751993 3.592042 -2.727808 15.081435 -12.906171 -7.428794 42.907054 -39.803917 -34.360626 7.879179 -40.098549 21.096717 -6.278788 6.085099 0.715400 -14.299344 -25.255917 1.505325 -42.745282 -26.656647 34.598345 -10.805034 5.336262 11.810419 2.015410 -54.860592 1.030417 -154.402019 77.729549 -146.232915 2.632278 -24.327016 -1.577464 0.003702 -0.010846 0.001681 -9.914913 -53.748226 9.790416 153.198306 77.149021 148.788310 -2.558439 -25.162328 1.367193 0.007817 0.006876 0.003550
-7.628508 127.710348 11.434596 178.898005 -22.848412 -3.783935 -0.038137 12.027459 3.304686 -0.028838 0.913131 0.254114 -0.044371 1.547881 0.424592 -0.066791 10.962374 3.012714 -1.297903 24.001394 -5.569201 -0.117757 0.316460 -5.795262 3.770583 3.610550 -2.736301 15.066597 -12.906703 -7.445227 43.054919 -39.860836 -34.514083 7.814076 -40.016669 21.189670 -6.262233 6.072286 0.712480 -14.296703 -25.246687 1.506458 -42.733106 -26.673535 34.580090 -10.780664 5.257441 11.770007 2.049812 -54.861605 1.002915 -154.374391 77.733320 -146.208980 2.629821 -24.321716 -1.548517 -0.004014 -0.008168 -0.001822 -9.916012 -53.747619 9.786928 153.209156 77.156918 148.793121 -2.563585 -25.156897 1.381562 0.009084 0.003490 0.004124
-7.565295 127.064676 11.399583 178.901757 -22.848588 -3.783721 -0.044153 12.034746 3.306763 -0.027943 0.912990 0.257816 -0.045358 1.549945 0.425997 -0.068955 10.960766 3.011038 -1.289094 23.985362 -5.583938 -0.102721 0.300509 -5.815399 3.781843 3.639617 -2.730435 15.052725 -12.901462 -7.465315 43.157352 -39.920186 -34.647313 7.842310 -39.943721 21.327719 -6.248793 6.065125 0.715322 -14.298084 -25.235190 1.510903 -42.714983 -26.694887 34.555340 -10.751317 5.193095 11.749419 2.087010 -54.860195 0.969594 -154.383162 77.737076 -146.214027 2.620462 -24.319855 -1.529516 -0.004360 -0.007530 -0.001979 -9.876490 -53.749617 9.745100 153.227645 77.167717 148.827334 -2.606239 -25.153619 1.414172 0.003966 0.000848 0.001801
-7.539165 126.800637 11.385375 178.906415 -22.850193 -3.786959 -0.051158 12.047327 3.323964 -0.028798 0.909587 0.250582 -0.042874 1.547194 0.421940 -0.069301 10.963589 3.013887 -1.274981 23.970828 -5.598186 -0.108854 0.300768 -5.813435 3.788482 3.660037 -2.723768 15.040901 -12.891151 -7.483915 43.232834 -39.976442 -34.767349 7.878647 -39.872745 21.489686 -6.235793 6.060051 0.717383 -14.291455 -25.204892 1.529063 -42.706624 -26.745043 34.521471 -10.742470 5.163013 11.761534 2.118614 -54.855201 0.943098 -154.388391 77.741194 -146.209092 2.610218 -24.318341 -1.518823 -0.000333 -0.007106 -0.000151 -9.840198 -53.749396 9.708487 153.265347 77.180734 148.881248 -2.625132 -25.150754 1.436734 0.001571 -0.000951 0.000713
